<svg width="18" height="16" viewBox="0 0 18 16" fill="none" xmlns="http://www.w3.org/2000/svg">
<path d="M15.5232 5.96364C15.9918 6.39636 16.3864 6.81636 16.6823 7.14727C16.8868 7.38114 17 7.68497 17 8C17 8.31503 16.8868 8.61886 16.6823 8.85273C15.3875 10.2909 12.4404 13.0909 9 13.0909H8.50675M5.14035 11.9836C3.71196 11.1579 2.4213 10.1009 1.3177 8.85273C1.1132 8.61886 1 8.31503 1 8C1 7.68497 1.1132 7.38114 1.3177 7.14727C2.61247 5.70909 5.55961 2.90909 9 2.90909C10.3561 2.93835 11.6834 3.31911 12.8596 4.01636M15.7821 1L2.21787 15M7.26131 9.79455C6.79817 9.31937 6.53653 8.67401 6.53377 8C6.53377 7.3249 6.79361 6.67746 7.25611 6.20009C7.71862 5.72273 8.34592 5.45455 9 5.45455C9.65303 5.45739 10.2783 5.72743 10.7387 6.20545M11.1456 9.27273C10.9261 9.66002 10.6113 9.98054 10.2331 10.2018" stroke="#000001" stroke-width="1.5" stroke-linecap="round" stroke-linejoin="round"/>
</svg>
