<svg width="14" height="14" viewBox="0 0 14 14" fill="none" xmlns="http://www.w3.org/2000/svg">
<path d="M11.6107 9.30934V12.0773C11.6107 12.322 11.5134 12.5567 11.3404 12.7298C11.1674 12.9028 10.9327 13 10.688 13H1.92267C1.67796 13 1.44328 12.9028 1.27024 12.7298C1.09721 12.5567 1 12.322 1 12.0773V3.31201C1 3.06731 1.09721 2.83262 1.27024 2.65959C1.44328 2.48656 1.67796 2.38935 1.92267 2.38935H4.69066M7.45866 8.84801L4.69066 9.34625L5.15199 6.54134L10.4389 1.27292C10.5246 1.18644 10.6267 1.1178 10.7391 1.07096C10.8516 1.02412 10.9722 1 11.094 1C11.2158 1 11.3364 1.02412 11.4488 1.07096C11.5612 1.1178 11.6633 1.18644 11.7491 1.27292L12.7271 2.25095C12.8136 2.33672 12.8822 2.43877 12.929 2.55121C12.9759 2.66364 13 2.78424 13 2.90604C13 3.02784 12.9759 3.14844 12.929 3.26088C12.8822 3.37331 12.8136 3.47536 12.7271 3.56113L7.45866 8.84801Z" stroke="#4F4F4F" stroke-linecap="round" stroke-linejoin="round"/>
</svg>
