<svg width="18" height="22" viewBox="0 0 18 22" fill="none" xmlns="http://www.w3.org/2000/svg">
<path d="M14.25 7.92308H15.75C15.9489 7.92308 16.1397 8.00412 16.2803 8.14838C16.421 8.29264 16.5 8.4883 16.5 8.69231V20.2308C16.5 20.4348 16.421 20.6304 16.2803 20.7747C16.1397 20.919 15.9489 21 15.75 21H2.25C2.05109 21 1.86032 20.919 1.71967 20.7747C1.57902 20.6304 1.5 20.4348 1.5 20.2308V8.69231C1.5 8.4883 1.57902 8.29264 1.71967 8.14838C1.86032 8.00412 2.05109 7.92308 2.25 7.92308H3.75M9 11.7692V1M9 1L6 4.07692M9 1L12 4.07692" stroke="#808080" stroke-width="1.5" stroke-linecap="round" stroke-linejoin="round"/>
</svg>
