<svg width="21" height="22" viewBox="0 0 21 22" fill="none" xmlns="http://www.w3.org/2000/svg">
<path d="M1.5 5.61538H19.5M6.75 5.61538V4.84615C6.75 3.82609 7.14509 2.84781 7.84835 2.12651C8.55161 1.40522 9.50544 1 10.5 1C11.4946 1 12.4484 1.40522 13.1517 2.12651C13.8549 2.84781 14.25 3.82609 14.25 4.84615V5.61538M8.25 8.69231V17.1538M12.75 8.69231V17.1538M3.75 5.61538H17.25V19.4615C17.25 19.8696 17.092 20.2609 16.8107 20.5494C16.5294 20.8379 16.1478 21 15.75 21H5.25C4.85218 21 4.47064 20.8379 4.18934 20.5494C3.90804 20.2609 3.75 19.8696 3.75 19.4615V5.61538Z" stroke="#808080" stroke-width="1.5" stroke-linecap="round" stroke-linejoin="round"/>
</svg>
