<svg width="18" height="22" viewBox="0 0 18 22" fill="none" xmlns="http://www.w3.org/2000/svg">
<path d="M14.25 7.4H15.75C15.9489 7.4 16.1397 7.48429 16.2803 7.63431C16.421 7.78434 16.5 7.98783 16.5 8.2V20.2C16.5 20.4122 16.421 20.6157 16.2803 20.7657C16.1397 20.9157 15.9489 21 15.75 21H2.25C2.05109 21 1.86032 20.9157 1.71967 20.7657C1.57902 20.6157 1.5 20.4122 1.5 20.2V8.2C1.5 7.98783 1.57902 7.78434 1.71967 7.63431C1.86032 7.48429 2.05109 7.4 2.25 7.4H3.75M9 1V13.8M9 13.8L6 10.6M9 13.8L12 10.6" stroke="#808080" stroke-width="1.5" stroke-linecap="round" stroke-linejoin="round"/>
</svg>
