<svg width="18" height="12" viewBox="0 0 18 12" fill="none" xmlns="http://www.w3.org/2000/svg">
<path d="M16.6823 5.1625C16.8868 5.39219 17 5.6906 17 6C17 6.3094 16.8868 6.60781 16.6823 6.8375C15.3875 8.25 12.4404 11 9 11C5.55961 11 2.61247 8.25 1.3177 6.8375C1.1132 6.60781 1 6.3094 1 6C1 5.6906 1.1132 5.39219 1.3177 5.1625C2.61247 3.75 5.55961 1 9 1C12.4404 1 15.3875 3.75 16.6823 5.1625Z" stroke="#0F0F0F" stroke-width="1.5" stroke-linecap="round" stroke-linejoin="round"/>
<path d="M9 8.5C10.3621 8.5 11.4662 7.38071 11.4662 6C11.4662 4.61929 10.3621 3.5 9 3.5C7.63794 3.5 6.53377 4.61929 6.53377 6C6.53377 7.38071 7.63794 8.5 9 8.5Z" stroke="#0F0F0F" stroke-width="1.5" stroke-linecap="round" stroke-linejoin="round"/>
</svg>
