<svg width="19" height="16" viewBox="0 0 19 16" fill="none" xmlns="http://www.w3.org/2000/svg">
<path fill-rule="evenodd" clip-rule="evenodd" d="M0.794996 0.781049C1.30402 0.280952 1.99441 0 2.71429 0H7.54571C7.80668 0 8.04453 0.147036 8.15746 0.378179L9.92698 4H16.2857C17.0056 4 17.696 4.28095 18.205 4.78105C18.714 5.28115 19 5.95942 19 6.66667V13.3333C19 14.0406 18.714 14.7189 18.205 15.219C17.696 15.719 17.0056 16 16.2857 16H2.71429C1.99441 16 1.30402 15.719 0.794996 15.219C0.285968 14.7189 0 14.0406 0 13.3333V2.66667C0 1.95942 0.285969 1.28115 0.794996 0.781049ZM2.71429 1.33333C2.35435 1.33333 2.00915 1.47381 1.75464 1.72386C1.50013 1.97391 1.35714 2.31304 1.35714 2.66667V13.3333C1.35714 13.687 1.50013 14.0261 1.75464 14.2761C2.00915 14.5262 2.35435 14.6667 2.71429 14.6667H16.2857C16.6457 14.6667 16.9908 14.5262 17.2454 14.2761C17.4999 14.0261 17.6429 13.687 17.6429 13.3333V6.66667C17.6429 6.31304 17.4999 5.97391 17.2454 5.72386C16.9908 5.47381 16.6457 5.33333 16.2857 5.33333H9.5C9.23903 5.33333 9.00118 5.1863 8.88825 4.95515L7.11873 1.33333H2.71429Z" fill="white"/>
</svg>
