<svg width="9" height="16" viewBox="0 0 9 16" fill="none" xmlns="http://www.w3.org/2000/svg">
<path fill-rule="evenodd" clip-rule="evenodd" d="M8.64422 0.323939C9.10971 0.764208 9.11973 1.48776 8.6666 1.94004L2.59522 8L8.6666 14.06C9.11973 14.5122 9.10971 15.2358 8.64422 15.6761C8.17874 16.1163 7.43405 16.1066 6.98093 15.6543L0.525069 9.2106C0.363028 9.05697 0.233305 8.87403 0.143276 8.67197C0.0487652 8.45985 0 8.23116 0 8C0 7.76884 0.0487652 7.54015 0.143276 7.32803C0.233305 7.12597 0.363028 6.94303 0.525069 6.7894L6.98093 0.345679C7.43405 -0.106597 8.17874 -0.116331 8.64422 0.323939Z" fill="black"/>
</svg>
