<svg width="12" height="12" viewBox="0 0 12 12" fill="none" xmlns="http://www.w3.org/2000/svg">
<path d="M1.6172 7.04857L4.95149 10.3829C5.07203 10.5032 5.23542 10.5709 5.40578 10.5709C5.57613 10.5709 5.73953 10.5032 5.86006 10.3829L10.6623 5.86717C10.8609 5.67839 10.9733 5.41639 10.9733 5.1424V2.02673C10.9733 1.47445 10.5256 1.02673 9.97333 1.02673L6.85777 1.02673C6.58377 1.02673 6.32177 1.13916 6.13299 1.33774L1.6172 6.14C1.49682 6.26053 1.4292 6.42393 1.4292 6.59428C1.4292 6.76464 1.49682 6.92803 1.6172 7.04857Z" stroke="#808080" stroke-linecap="round" stroke-linejoin="round"/>
<path d="M7.75 3.625C7.75 3.97018 8.02982 4.25 8.375 4.25C8.72018 4.25 9 3.97018 9 3.625C9 3.27982 8.72018 3 8.375 3C8.02982 3 7.75 3.27982 7.75 3.625Z" fill="#808080"/>
</svg>
