<svg width="95" height="18" viewBox="0 0 95 18" fill="none" xmlns="http://www.w3.org/2000/svg">
<path d="M0 1.0001H95V17.0001H0V1.0001Z" fill="white"/>
<path d="M16 17.0001L20 13.0001H8V17.0001H16Z" fill="black"/>
<path d="M8 5.0001H16L20 1.0001H8L4 5.0001V17.0001L8 13.0001V5.0001Z" fill="black"/>
<path d="M33.269 17.2761C28.784 17.2761 24.966 13.5271 24.966 9.0881C24.966 4.6491 28.784 0.923096 33.269 0.923096C35.592 0.923096 37.731 1.9121 39.249 3.4761L37.202 5.3851C36.213 4.2581 34.787 3.5451 33.269 3.5451C30.348 3.5451 27.887 6.0751 27.887 9.0881C27.887 12.1241 30.348 14.6541 33.269 14.6541C34.81 14.6541 36.213 13.9411 37.202 12.8141L39.249 14.7001C37.731 16.2871 35.592 17.2761 33.269 17.2761Z" fill="black"/>
<path d="M47.0527 17.2761C43.5337 17.2761 40.6586 14.4701 40.6586 11.0431C40.6586 7.6161 43.5337 4.8331 47.0527 4.8331C50.5487 4.8331 53.4007 7.6161 53.4007 11.0431C53.4007 14.4701 50.5487 17.2761 47.0527 17.2761ZM47.0527 14.8841C49.0307 14.8841 50.6406 13.1591 50.6406 11.0431C50.6406 8.9271 49.0307 7.2251 47.0527 7.2251C45.0517 7.2251 43.4186 8.9271 43.4186 11.0431C43.4186 13.1591 45.0517 14.8841 47.0527 14.8841Z" fill="black"/>
<path d="M60.1772 4.8331C63.3282 4.8331 65.2602 6.8341 65.2602 9.8471V17.0001H62.5232V15.5971C61.6492 16.6781 60.1772 17.2761 58.7972 17.2761C56.2672 17.2761 54.3812 15.7811 54.3812 13.4811C54.3812 11.1351 56.5202 9.5251 59.2112 9.5251C60.2922 9.5251 61.4422 9.7551 62.5232 10.1461V9.8471C62.5232 8.4671 61.7872 7.1331 59.6252 7.1331C58.4982 7.1331 57.4172 7.5241 56.4052 8.0301L55.4392 6.0751C57.1182 5.2471 58.6822 4.8331 60.1772 4.8331ZM59.4182 15.2291C60.7752 15.2291 62.2242 14.5391 62.5232 13.2741V11.9171C61.6492 11.6411 60.6602 11.4801 59.6252 11.4801C58.2222 11.4801 57.0722 12.2621 57.0722 13.3891C57.0722 14.5161 58.0842 15.2291 59.4182 15.2291Z" fill="black"/>
<path d="M73.3539 17.2761C69.9039 17.2761 66.9829 14.4241 66.9829 11.0431C66.9829 7.6621 69.9269 4.8331 73.3769 4.8331C75.1939 4.8331 76.7579 5.5921 77.9079 6.7651L76.0219 8.4211C75.3549 7.7081 74.3659 7.2251 73.3539 7.2251C71.3989 7.2251 69.7659 8.9731 69.7659 11.0431C69.7659 13.1361 71.3989 14.8841 73.3769 14.8841C74.3889 14.8841 75.4009 14.4011 76.0909 13.6421L77.9769 15.2751C76.8039 16.4941 75.2399 17.2761 73.3539 17.2761Z" fill="black"/>
<path d="M86.3573 4.8331C88.9563 4.8331 90.7733 6.7191 90.7733 9.4331V17.0001H88.0363V9.9851C88.0363 8.3521 87.0243 7.2251 85.5523 7.2251C83.9423 7.2251 82.6543 8.3521 82.6543 9.8011V17.0001H79.8483V0.923096H82.6543V6.7191C83.3673 5.5921 84.7703 4.8331 86.3573 4.8331Z" fill="black"/>
</svg>
